<svg width="44" height="45" viewBox="0 0 44 45" fill="none" xmlns="http://www.w3.org/2000/svg">
<g clip-path="url(#clip0_726_166)">
<path d="M25.3565 30.9571C22.7368 29.8917 21.6504 28.4644 21.7285 26.2247C21.7999 24.176 23.0607 22.6684 25.3299 21.943V18.782C24.7817 18.782 24.2335 18.782 23.6853 18.782C23.0425 18.782 22.4012 18.7853 21.7584 18.782C20.8414 18.7753 20.6287 18.5793 20.5257 17.673C20.3879 16.4719 19.7267 15.6745 18.6121 15.2876C17.5456 14.9157 16.3296 15.2574 15.6568 16.1871C15.3428 16.621 15.1451 17.1839 15.0405 17.7182C14.881 18.5324 14.6966 18.7753 13.8777 18.7803C12.4474 18.7887 11.0187 18.7887 9.58846 18.7803C8.72796 18.7753 8.45552 18.4871 8.45386 17.5976C8.4522 12.1651 8.45386 6.73082 8.45386 1.29825C8.45386 0.246249 8.68809 0.0050255 9.728 0.0050255C18.1187 0 26.5127 0 34.905 0C37.5164 0 40.1278 0 42.7375 0C43.7426 0 43.9984 0.254625 43.9984 1.24632C43.9984 12.3627 43.9984 23.4808 43.9984 34.5972C43.9984 35.5487 43.7326 35.81 42.7724 35.81C37.3636 35.81 31.9548 35.81 26.5459 35.81C25.619 35.81 25.3582 35.5487 25.3565 34.6307C25.3532 33.3995 25.3565 32.1682 25.3565 30.9537V30.9571ZM42.2325 18.7836C41.2524 18.7836 40.3238 18.7686 39.3969 18.8004C39.2657 18.8054 39.1095 19.0249 39.0198 19.1773C38.6876 19.7485 38.4683 20.4119 38.048 20.9027C35.7556 23.5746 31.5179 22.6834 30.3733 19.3264C30.3052 19.1237 30.1225 18.8155 29.9796 18.8088C29.0344 18.7619 28.0875 18.7853 27.0958 18.7853C27.0958 20.0936 27.1024 21.3249 27.0941 22.5544C27.0891 23.2882 26.8267 23.5629 26.1024 23.6366C24.6139 23.789 23.5308 24.9081 23.4926 26.3336C23.4528 27.8161 24.4528 28.9787 25.9695 29.2132C26.9612 29.3673 27.0958 29.5265 27.0974 30.5534C27.0974 31.3675 27.0974 32.1833 27.0974 32.9974C27.0974 33.3425 27.0974 33.6893 27.0974 34.0193H42.2342V18.7853L42.2325 18.7836ZM25.3565 1.79243H10.2264V17.0264C10.7696 17.0264 11.2862 16.9795 11.7912 17.0364C12.7663 17.147 13.3826 16.9845 13.8062 15.8672C14.4474 14.1719 16.3146 13.1986 18.0904 13.3745C20.0158 13.5638 21.3397 14.5957 22.0457 16.43C22.1305 16.6495 22.3149 16.9895 22.4677 16.9979C23.4096 17.0515 24.3565 17.0247 25.3565 17.0247C25.3565 15.827 25.3565 14.7046 25.3565 13.5823C25.3565 12.4582 25.4528 12.3443 26.5359 12.1785C28.0161 11.9506 29.0061 10.8048 28.9845 9.34073C28.9646 7.89673 27.9081 6.76265 26.428 6.59848C25.5691 6.503 25.3582 6.2735 25.3565 5.41079C25.3532 4.22477 25.3565 3.03875 25.3565 1.79578V1.79243ZM27.1157 17.0264C28.3699 17.0264 29.5676 17.0197 30.7653 17.0297C31.5777 17.0364 31.8268 17.2793 31.9165 18.1002C32.086 19.633 33.2206 20.7118 34.6658 20.7168C36.1293 20.7218 37.2822 19.6112 37.4334 18.0516C37.5048 17.3162 37.7722 17.0565 38.5015 17.0281C38.7706 17.018 39.0397 17.0264 39.3088 17.0264C40.274 17.0264 41.2392 17.0264 42.2143 17.0264V1.79243H27.1257V4.87641C29.551 5.83125 30.6922 7.17641 30.7138 9.21509C30.7404 11.7128 29.3899 13.1869 27.114 13.9039V17.0264H27.1157Z" fill="black"/>
<path d="M9.2612 45C6.59 45 3.91714 45.0017 1.24594 45C0.25421 45 0.00170898 44.7404 0.00170898 43.7369C0.00170898 38.3278 0.00170898 32.917 0.00170898 27.5079C0.00170898 26.4676 0.244243 26.2264 1.28581 26.2231C2.28086 26.2197 3.27426 26.2046 4.26765 26.2298C4.69458 26.2398 4.91053 26.141 5.05506 25.6803C5.65641 23.7807 7.37907 22.5343 9.31269 22.5293C11.2463 22.5226 12.9939 23.7673 13.5886 25.6569C13.7431 26.1477 13.969 26.2448 14.4225 26.2314C15.4574 26.2013 16.494 26.2164 17.5289 26.2247C18.3612 26.2314 18.6386 26.5162 18.6419 27.3588C18.6469 28.7995 18.6469 30.2418 18.6419 31.6824C18.6386 32.4731 18.411 32.721 17.6386 32.8081C16.0638 32.9857 15.0122 34.1097 15.0122 35.6124C15.0122 37.115 16.0821 38.2524 17.6419 38.4116C18.4044 38.4886 18.6386 38.7483 18.6403 39.5423C18.6453 40.983 18.6453 42.4253 18.6403 43.8659C18.637 44.7102 18.3612 44.995 17.524 44.9983C14.7697 45.005 12.0138 45 9.25953 45.0017L9.2612 45ZM16.8761 27.9753C15.6069 27.9753 14.4059 27.9837 13.2049 27.9719C12.4341 27.9652 12.1733 27.7106 12.0836 26.935C11.8992 25.3503 10.7679 24.2698 9.30439 24.2832C7.83755 24.2983 6.7312 25.3855 6.56508 26.9769C6.49033 27.6888 6.20626 27.9602 5.46869 27.9703C4.4537 27.9837 3.43872 27.9703 2.42373 27.9753C2.20777 27.9753 1.99016 27.9987 1.77586 28.0121V43.1942H16.8794V40.1018C14.5438 39.3044 13.3245 37.8253 13.2763 35.7531C13.2248 33.5251 14.3511 32.066 16.8761 31.0995V27.9719V27.9753Z" fill="black"/>
</g>
<defs>
<clipPath id="clip0_726_166">
<rect width="44" height="45" fill="white"/>
</clipPath>
</defs>
</svg>
