<svg width="36" height="44" viewBox="0 0 36 44" fill="none" xmlns="http://www.w3.org/2000/svg">
<g clip-path="url(#clip0_726_156)">
<path d="M16.7998 43.9999C16.0692 43.8889 15.335 43.8008 14.6103 43.6632C11.3628 43.0464 8.52206 41.5981 6.06533 39.3906C3.34498 36.9466 1.52139 33.9474 0.583717 30.4086C0.185295 28.906 0.0011299 27.3756 -7.3794e-05 25.8223C-0.00127749 22.0132 -0.00127749 18.2029 -7.3794e-05 14.3938C-7.3794e-05 13.386 0.494643 12.89 1.49852 12.8888C3.92637 12.8864 6.35421 12.8864 8.78206 12.8888C9.78714 12.8888 10.2819 13.3848 10.2831 14.3914C10.2843 18.1727 10.2554 21.9529 10.2927 25.7342C10.3252 28.9989 11.7853 31.455 14.7151 32.9191C18.6836 34.9033 23.62 32.8925 25.1775 28.7153C25.5471 27.7256 25.7156 26.7033 25.7132 25.6473C25.7084 21.9239 25.7108 18.2005 25.7108 14.4771C25.7108 13.3546 26.1766 12.89 27.2984 12.8888C29.6842 12.8888 32.0687 12.8888 34.4544 12.8888C35.5148 12.8888 35.9951 13.3715 35.9951 14.4373C35.9951 18.1896 35.9975 21.942 35.9951 25.6931C35.9915 30.7176 34.2353 35.0505 30.7398 38.623C27.8726 41.5523 24.3759 43.318 20.2881 43.8418C19.9234 43.8889 19.5599 43.9468 19.1964 43.9999H16.7962H16.7998ZM28.2855 23.3046C28.2855 24.1241 28.3119 24.8978 28.2782 25.669C28.2445 26.4257 28.2193 27.1934 28.0676 27.9308C27.1769 32.2275 23.904 35.3691 19.5804 36.1259C15.6925 36.8066 11.4603 34.8755 9.36826 31.4937C8.25364 29.6917 7.70355 27.7449 7.71438 25.6292C7.7192 24.8604 7.71438 24.0915 7.71438 23.3167H2.49999C2.58064 24.905 2.57101 26.4704 2.75638 28.0117C3.17165 31.4707 4.67025 34.4531 7.14022 36.879C10.773 40.4455 15.1592 41.9228 20.2147 41.236C23.6272 40.7726 26.5485 39.2506 28.9487 36.7933C31.8652 33.8086 33.3313 30.1841 33.4204 26.0069C33.4397 25.1102 33.4228 24.2134 33.4228 23.3046H28.2843H28.2855ZM2.6011 15.4861V20.6759H7.69151V15.4861H2.6011ZM28.3047 20.6856H33.4V15.4982H28.3047V20.6856Z" fill="black"/>
<path d="M4.64501 6.44139C4.09011 5.89827 3.58576 5.41429 3.09345 4.91945C2.39651 4.21822 2.3917 3.52061 3.0754 2.82783C3.87826 2.01436 4.6751 1.19485 5.49963 0.404306C6.2724 -0.335545 7.45202 0.00601754 7.68072 1.01743C7.79146 1.50744 7.61933 1.9178 7.27267 2.26178C6.74786 2.78317 6.21944 3.30095 5.65009 3.86217C6.17851 4.38478 6.66601 4.86031 7.14748 5.34429C7.91424 6.11431 7.90942 6.77933 7.13545 7.55901C6.35907 8.33869 5.59352 9.12803 4.80149 9.89202C4.02631 10.6403 2.85994 10.3253 2.61197 9.3139C2.48799 8.80578 2.66975 8.38697 3.02845 8.03334C3.54604 7.5216 4.06483 7.01348 4.64501 6.4426V6.44139Z" fill="black"/>
<path d="M17.5017 6.4353C16.93 5.87649 16.4112 5.38648 15.9105 4.87836C15.2581 4.21817 15.2605 3.5109 15.9129 2.8483C16.6941 2.05413 17.4813 1.2648 18.2733 0.481497C18.892 -0.130419 19.6696 -0.159385 20.2052 0.394598C20.7276 0.936511 20.6891 1.69326 20.0885 2.30035C19.5865 2.80726 19.0689 3.29848 18.5128 3.8416C18.9161 4.24713 19.2844 4.61766 19.6527 4.98698C19.8237 5.15957 20.0006 5.32613 20.1655 5.50476C20.7096 6.09616 20.7204 6.80342 20.1607 7.38033C19.3362 8.23122 18.4984 9.07125 17.6486 9.89921C17.0889 10.4447 16.3233 10.4411 15.8106 9.92817C15.2978 9.41402 15.2966 8.64882 15.8382 8.08518C16.3606 7.54086 16.9083 7.02187 17.5029 6.4353H17.5017Z" fill="black"/>
<path d="M31.3574 3.85123C31.9123 4.40159 32.4106 4.88919 32.9017 5.38404C33.6107 6.09975 33.6095 6.78891 32.8981 7.50703C32.1036 8.30844 31.3176 9.11829 30.5039 9.90038C29.7312 10.6426 28.5552 10.3095 28.3216 9.29812C28.2085 8.80811 28.3782 8.39654 28.7237 8.05257C29.2473 7.52997 29.7757 7.01098 30.3523 6.44131C29.819 5.91629 29.3183 5.43352 28.8284 4.93988C28.099 4.20607 28.1002 3.52294 28.832 2.78671C29.6168 1.99617 30.3944 1.19718 31.1961 0.423537C31.9712 -0.32597 33.1364 -0.0182013 33.3892 0.990796C33.5168 1.49892 33.3374 1.91893 32.9787 2.27256C32.4599 2.78309 31.9375 3.2888 31.361 3.85123H31.3574Z" fill="black"/>
</g>
<defs>
<clipPath id="clip0_726_156">
<rect width="36" height="44" fill="white"/>
</clipPath>
</defs>
</svg>
