<svg width="42" height="44" viewBox="0 0 42 44" fill="none" xmlns="http://www.w3.org/2000/svg">
<g clip-path="url(#clip0_726_169)">
<path d="M35.9097 0.022318H7.51253C7.15792 0.022318 6.79835 0.0561151 6.4487 0.0148076C5.69237 -0.0740661 5.13814 0.211331 4.60499 0.754587C3.29938 2.08644 1.94914 3.37448 0.591466 4.65126C0.169903 5.04681 0.00251829 5.4699 0.00251829 6.04695C0.0149172 16.4802 0.0111975 26.9123 0.0111975 37.3455C0.0111975 37.3455 0.0384751 41.7867 0.00251829 42.6416C-0.0235194 43.2462 0.148825 43.7044 0.684457 43.9998C0.684457 43.9998 21.2071 43.9422 25.9745 43.8846C26.4593 43.8784 26.856 43.4903 26.8709 43.0009C26.8709 42.9934 26.8709 42.9859 26.8709 42.9784C26.8883 42.4589 26.4791 42.027 25.9646 42.027C22.3714 42.0245 9.48767 42.0095 2.58769 42.0095C2.39426 42.0095 2.20084 42.0095 2.01734 42.0095V8.01219C3.62671 8.01219 5.20261 8.01595 6.77851 8.01094C7.40838 8.00843 7.91921 7.49522 7.92169 6.86059C7.92665 5.4699 7.92293 4.07796 7.92293 2.68728V2.05515C8.61851 1.97629 35.2588 2.00132 35.6506 2.08394C35.6506 2.25918 35.6506 2.44319 35.6506 2.62719C35.6506 6.34988 35.6506 21.4121 35.6506 26.5442C35.6506 27.0274 35.9977 27.4392 36.4714 27.5156L36.4925 27.5193C37.0851 27.6157 37.622 27.1538 37.622 26.548C37.622 20.84 37.622 5.80161 37.622 1.7685C37.622 0.178786 37.4695 0.0235698 35.9072 0.0235698L35.9097 0.022318ZM5.91679 5.97936H2.09173C3.38618 4.72637 4.61863 3.5322 5.91679 2.27545V5.97936Z" fill="black"/>
<path d="M25.8517 23.0096C25.3247 23.0083 24.7965 23.0083 24.2696 23.0071C24.2683 23.0071 24.2671 23.0071 24.2646 23.0071H23.9187C22.6292 23.0071 21.3409 23.0071 20.0514 23.0071H18.1023C16.8129 23.0071 15.5246 23.0071 14.2351 23.0071H13.8892C13.8892 23.0071 13.8867 23.0071 13.8842 23.0071C13.3573 23.0071 12.8291 23.0071 12.3021 23.0096C11.5818 23.0121 11.1379 23.499 11.2259 24.1612C11.2966 24.6982 11.6983 24.9961 12.3778 24.9973C12.8006 24.9973 13.3127 24.9973 13.8855 24.9973H13.888C14.1347 24.9973 14.4137 24.9973 14.7162 24.9973C16.0379 24.9973 17.5791 24.9973 19.0757 24.9973C20.5734 24.9973 22.1134 24.9973 23.4351 24.9973C23.7376 24.9973 24.0166 24.9973 24.2634 24.9973H24.2658C24.8399 24.9973 25.352 24.9973 25.7735 24.9973C26.453 24.9973 26.8547 24.6982 26.9254 24.1612C27.0134 23.499 26.5695 23.0121 25.8492 23.0096H25.8517Z" fill="black"/>
<path d="M22.1258 13.4612C22.5152 13.6365 22.8933 13.7754 23.243 13.9682C24.0948 14.4388 24.6664 15.1448 24.9255 16.1011C25.145 16.9123 25.3855 17.7184 25.6062 18.5295C25.8591 19.4558 25.4537 20.0053 24.5151 20.0053C20.6975 20.0078 16.8799 20.0078 13.061 20.0053C12.1484 20.0053 11.7356 19.4508 11.9761 18.5633C12.2241 17.6471 12.4386 16.717 12.7423 15.8195C13.1242 14.6904 14.0033 14.0458 15.0696 13.6315C15.2097 13.5776 15.3511 13.5276 15.4924 13.475C14.4757 11.0566 14.7993 9.2416 16.4496 8.00238C17.9003 6.91461 19.9064 6.95717 21.3112 8.10627C22.866 9.37679 23.1599 11.2657 22.1258 13.4587V13.4612ZM23.4178 17.9963C23.2864 17.5256 23.1574 17.1113 23.0582 16.6907C22.933 16.1587 22.6094 15.8057 22.1233 15.6092C21.8245 15.4878 21.5096 15.3451 21.1959 15.3301C19.9486 15.27 18.6988 15.2362 17.449 15.2337C16.9927 15.2337 16.524 15.3025 16.0814 15.4189C14.839 15.7444 14.2141 16.6519 14.2674 17.9963H23.4178ZM18.7632 13.1896C19.8878 13.2121 20.7843 12.3397 20.7967 11.2131C20.8078 10.1429 19.93 9.23659 18.8662 9.22032C17.7589 9.20405 16.8625 10.059 16.8365 11.1568C16.8104 12.2633 17.6672 13.1671 18.7632 13.1896Z" fill="black"/>
<path d="M34.8272 28.7977C38.7837 28.7826 41.9875 32.0096 42.0012 36.024C42.0136 39.9557 38.7936 43.2302 34.9028 43.2428C30.924 43.2553 27.7003 40.0383 27.6941 36.0515C27.6891 32.0234 30.8459 28.8127 34.8272 28.7977ZM40.0174 36.1191C40.0893 33.2801 37.8054 30.8781 34.9536 30.7954C32.1589 30.7128 29.7362 33.0235 29.6655 35.8387C29.5924 38.7715 31.8378 41.1761 34.7243 41.2563C37.5673 41.3351 39.9442 39.0294 40.0174 36.1204V36.1191Z" fill="black"/>
<path d="M34.2296 36.2981C34.945 35.4482 35.6939 34.5569 36.444 33.6669C36.5841 33.5004 36.7193 33.3277 36.8706 33.1737C37.2624 32.7757 37.8054 32.7394 38.2096 33.0736C38.6275 33.4178 38.6944 33.9861 38.3584 34.4568C38.2047 34.6708 38.0236 34.8661 37.8538 35.0689C36.9549 36.1416 36.0572 37.2144 35.157 38.2858C34.5681 38.9856 34.0424 39.0081 33.3964 38.361C32.6934 37.6575 31.9941 36.9515 31.296 36.243C30.8112 35.7511 30.7703 35.1815 31.1795 34.7509C31.5998 34.3103 32.1875 34.3529 32.6921 34.8423C33.1906 35.3267 33.7014 35.7999 34.2296 36.2993V36.2981Z" fill="black"/>
<path d="M26.3488 33.9949C21.1847 33.9949 14.1805 33.9949 9.83598 33.9974C9.62024 33.9974 9.39953 33.9999 9.19123 34.0449C8.73619 34.1438 8.43862 34.5269 8.4287 34.9812C8.41878 35.4519 8.72256 35.8575 9.19619 35.9601C9.40449 36.0052 9.6252 36.0077 9.84094 36.0077C14.4037 36.0102 21.0483 36.0114 26.2868 36.0189C26.2719 35.7874 26.2608 35.5558 26.2608 35.3205C26.2608 34.8711 26.293 34.4292 26.3476 33.9949H26.3488Z" fill="black"/>
<path d="M9.84832 30.013C9.67845 30.013 9.50735 30.008 9.33872 30.023C8.82417 30.0681 8.446 30.4686 8.42989 30.9731C8.41501 31.47 8.77706 31.9131 9.27797 31.9883C9.44536 32.0133 9.6177 32.002 9.78756 32.002C14.2574 32.002 21.7215 32.002 26.8063 32.002C27.0419 31.3023 27.3481 30.6351 27.7188 30.0105C22.7047 30.0105 14.5735 30.0105 9.84956 30.0105L9.84832 30.013Z" fill="black"/>
</g>
<defs>
<clipPath id="clip0_726_169">
<rect width="42" height="44" fill="white"/>
</clipPath>
</defs>
</svg>
