<svg width="46" height="46" viewBox="0 0 46 46" fill="none" xmlns="http://www.w3.org/2000/svg">
<g clip-path="url(#clip0_726_177)">
<path d="M23.0136 45.9848C15.8816 45.9848 8.74962 45.9848 1.61761 45.9821C1.34547 45.9821 1.06508 45.9752 0.803937 45.9107C0.291268 45.7843 -0.0358499 45.3271 0.00400902 44.8574C0.0466169 44.3397 0.432837 43.9291 0.970245 43.8852C1.39632 43.8509 1.82653 43.8673 2.25535 43.866C3.45525 43.8646 4.65514 43.866 5.85641 43.866C6.55188 43.866 6.56425 43.8522 6.56425 43.1368C6.56425 39.094 6.56562 35.0513 6.56425 31.0099C6.56425 30.3755 6.6742 29.7823 7.10028 29.2838C7.52636 28.7839 8.06927 28.5395 8.72762 28.5409C10.2024 28.5436 11.6772 28.5326 13.1506 28.545C14.3519 28.5546 15.259 29.4554 15.2672 30.6639C15.2824 32.7196 15.2727 34.7753 15.2727 36.831C15.2727 38.9553 15.2714 41.0797 15.2727 43.2027C15.2727 43.8385 15.303 43.8646 15.9448 43.8673C16.6472 43.8701 17.3523 43.8426 18.0532 43.8769C18.5618 43.9017 18.7102 43.6888 18.6937 43.2123C18.6676 42.4076 18.6869 41.6029 18.6869 40.7968C18.6869 35.3328 18.7185 29.8674 18.6663 24.4047C18.6525 22.9052 19.6146 21.8602 21.1375 21.9481C22.402 22.0208 23.6747 21.9604 24.9434 21.9632C26.524 21.9659 27.3198 22.7528 27.3211 24.321C27.3225 30.5554 27.3211 36.7912 27.3211 43.0256C27.3211 43.5867 27.6075 43.8673 28.1802 43.8673C28.7808 43.8673 29.3801 43.8673 29.9807 43.8673C30.7312 43.866 30.7366 43.8618 30.7366 43.1313C30.7366 40.4933 30.7366 37.8554 30.7366 35.2174C30.7366 29.3758 30.7408 23.5355 30.7311 17.6938C30.7311 16.9605 30.9222 16.3055 31.5242 15.8922C31.8981 15.6354 32.3832 15.4253 32.8272 15.4074C34.2813 15.347 35.741 15.3772 37.1979 15.3855C38.4817 15.3937 39.3572 16.2327 39.4342 17.5139C39.4465 17.7186 39.4396 17.9245 39.4396 18.1305C39.4396 26.4385 39.4396 34.7464 39.4396 43.053C39.4396 43.5941 39.7164 43.865 40.2698 43.866C41.7954 43.866 43.3211 43.8536 44.8467 43.8742C45.758 43.8866 46.2913 44.6954 45.8363 45.4067C45.6686 45.669 45.2865 45.8228 44.9718 45.9546C44.7808 46.0343 44.532 45.9835 44.3093 45.9835C37.2117 45.9835 30.114 45.9835 23.0164 45.9848H23.0136ZM32.8519 30.6309C32.8519 33.7975 32.8519 36.9656 32.8519 40.1322C32.8519 41.1937 32.8547 42.2552 32.8519 43.3167C32.8519 43.6188 32.8863 43.866 33.2794 43.8646C34.4793 43.8591 35.6778 43.8618 36.8777 43.8646C37.1773 43.8646 37.3189 43.73 37.3148 43.4293C37.3106 43.0008 37.3161 42.5738 37.3161 42.1453C37.3161 34.1505 37.3161 26.1556 37.3161 18.1607C37.3161 17.4508 37.2969 17.4315 36.6055 17.4302C35.5939 17.4274 34.5837 17.4274 33.5721 17.4302C32.8712 17.4315 32.8533 17.4494 32.8533 18.1511C32.8533 22.3106 32.8533 26.4714 32.8533 30.6309H32.8519ZM25.2663 33.9857C25.2663 30.8877 25.2677 27.7897 25.2663 24.6931C25.2663 24.0697 25.2086 24.012 24.5942 24.0093C23.5497 24.0038 22.5051 24.0051 21.4591 24.0093C20.7774 24.012 20.7348 24.0532 20.7334 24.7426C20.7307 27.1553 20.7334 29.5694 20.7334 31.9821C20.7334 35.7132 20.7334 39.4442 20.7334 43.1752C20.7334 43.8412 20.7595 43.8646 21.4316 43.866C22.4762 43.8687 23.5208 43.8687 24.5668 43.866C25.2402 43.8646 25.2663 43.8412 25.2663 43.1766C25.2677 40.113 25.2663 37.0493 25.2663 33.9857ZM13.1465 37.2278C13.1465 35.2257 13.1369 33.2235 13.1547 31.2228C13.1588 30.7696 13.0324 30.5691 12.5486 30.5801C11.4532 30.6048 10.3563 30.5979 9.26091 30.5828C8.85133 30.5773 8.67815 30.7147 8.67952 31.1459C8.69052 35.201 8.68914 39.2561 8.67952 43.3112C8.67952 43.741 8.84995 43.8783 9.26091 43.8728C10.322 43.8563 11.3844 43.8701 12.4455 43.8673C13.1272 43.866 13.1451 43.8495 13.1465 43.1835C13.1478 41.1992 13.1465 39.2135 13.1465 37.2292V37.2278Z" fill="black"/>
<path d="M14.7973 17.6211C15.0392 17.3931 15.2385 17.2132 15.4295 17.0237C16.3765 16.0803 17.3139 15.1273 18.2719 14.1949C18.5619 13.912 18.6938 13.6181 18.6924 13.2034C18.6883 10.0176 21.6819 7.95363 24.641 9.11812C25.1221 9.30762 25.5537 9.6523 25.9619 9.98187C26.2313 10.1988 26.4003 10.2483 26.6354 9.96539C27.9246 8.40954 29.2303 6.86604 30.5044 5.2992C30.6584 5.1097 30.7202 4.79798 30.723 4.54119C30.7505 2.11059 32.1909 0.424284 34.5907 0.0439027C36.7279 -0.295282 38.9875 1.36356 39.3284 3.52363C39.6308 5.44202 38.8432 7.17776 37.2598 8.08408C35.6133 9.02611 33.7646 8.85171 32.2294 7.61032C31.6947 7.17776 31.6933 7.18463 31.2686 7.69409C30.0962 9.10301 28.9252 10.5119 27.7391 11.9085C27.4477 12.2518 27.2951 12.5992 27.3034 13.0647C27.3363 14.9447 26.4347 16.3179 24.7606 17.0553C23.0288 17.8188 21.3657 17.5346 19.9679 16.1874C19.6765 15.9073 19.4992 15.9032 19.2161 16.1902C18.0038 17.4261 16.7655 18.6359 15.556 19.8731C15.3759 20.0572 15.2357 20.3236 15.1766 20.5749C14.7217 22.5111 13.1342 23.9255 11.2993 23.9983C9.05894 24.0862 7.38211 22.9423 6.76086 20.9031C6.16848 18.9586 7.09623 16.7807 8.91462 15.8455C10.7729 14.8897 13.0888 15.3882 14.3396 17.0141C14.4825 17.1995 14.6213 17.389 14.7945 17.6211H14.7973ZM25.2541 13.1252C25.2623 11.9593 24.1999 10.8827 23.0219 10.8635C21.8592 10.8442 20.7775 11.8975 20.7445 13.0812C20.7129 14.2539 21.8166 15.3731 23.0027 15.369C24.1724 15.3662 25.2458 14.2965 25.2541 13.1252ZM13.1452 19.6699C13.1383 18.4313 12.1501 17.4453 10.9172 17.4467C9.72417 17.448 8.68784 18.4931 8.68784 19.6933C8.68784 20.8948 9.72142 21.9398 10.9158 21.9426C12.1693 21.9453 13.1534 20.9429 13.1465 19.6699H13.1452ZM35.0387 6.55844C36.3087 6.56393 37.308 5.58895 37.3121 4.33932C37.3162 3.14325 36.284 2.10785 35.0855 2.1051C33.8553 2.10235 32.8671 3.08146 32.8547 4.31598C32.8424 5.55599 33.8141 6.55432 35.0387 6.55844Z" fill="black"/>
</g>
<defs>
<clipPath id="clip0_726_177">
<rect width="46" height="46" fill="white"/>
</clipPath>
</defs>
</svg>
