<svg width="156" height="21" viewBox="0 0 156 21" fill="none" xmlns="http://www.w3.org/2000/svg"><g clip-path="url(#clip0_271_56)"><path d="M42.0373 1.48149C40.3766 0.66682 38.4527 0.253906 36.316 0.253906C34.2045 0.253906 32.2806 0.66682 30.5976 1.4787C28.8949 2.30173 27.5311 3.507 26.5426 5.061C25.554 6.6178 25.0527 8.50381 25.0527 10.6632C25.0527 12.8506 25.554 14.7421 26.5426 16.285C27.5311 17.8278 28.8977 19.0164 30.6032 19.8143C32.2834 20.6011 34.2045 20.9972 36.316 20.9972C38.4499 20.9972 40.3738 20.5983 42.0317 19.8115C43.7119 19.0136 45.0589 17.8251 46.0363 16.2822C47.0108 14.7394 47.5065 12.8478 47.5065 10.6632C47.5065 8.50381 47.0108 6.62059 46.0363 5.06379C45.0589 3.50979 43.7147 2.30452 42.0373 1.48149ZM36.3132 16.3185C35.2294 16.3185 34.2241 16.0981 33.3224 15.6656C32.4346 15.2416 31.7569 14.625 31.2473 13.7824C30.7404 12.9454 30.4855 11.8964 30.4855 10.666C30.4855 9.43565 30.7488 8.38105 31.2641 7.5329C31.7793 6.68755 32.4822 6.03749 33.3476 5.60504C34.2325 5.16144 35.2322 4.93824 36.3132 4.93824C37.4138 4.93824 38.4079 5.16702 39.2676 5.61899C40.1162 6.06539 40.8107 6.72102 41.3288 7.57196C41.8468 8.42011 42.1073 9.46355 42.1073 10.6688C42.1073 11.8992 41.8468 12.9454 41.3288 13.7824C40.8135 14.6166 40.119 15.2527 39.262 15.674C38.3883 16.1009 37.397 16.3185 36.3132 16.3185Z" fill="white"/><path d="M68.47 4.95218V0.666809H50.3989V5.31209H61.5754L50.3989 16.3017V20.5871H68.6884V15.9446H57.3832L68.47 4.95218Z" fill="white"/><path d="M89.6554 4.95218V0.666809H71.5815V5.31209H82.7608L71.5815 16.3017V20.5871H89.8711V15.9446H78.5658L89.6554 4.95218Z" fill="white"/><path d="M154.53 5.06658C153.555 3.51258 152.208 2.30452 150.531 1.48149C148.87 0.66682 146.946 0.253906 144.81 0.253906C142.698 0.253906 140.774 0.66682 139.091 1.4787C137.389 2.30173 136.025 3.507 135.036 5.061C134.048 6.6178 133.546 8.50381 133.546 10.6632C133.546 12.8506 134.048 14.7421 135.036 16.285C136.025 17.8278 137.391 19.0164 139.097 19.8143C140.777 20.6011 142.698 20.9972 144.81 20.9972C146.944 20.9972 148.867 20.5983 150.525 19.8115C152.206 19.0136 153.553 17.8251 154.53 16.2822C155.504 14.7394 156 12.8478 156 10.6632C156 8.5066 155.504 6.62338 154.53 5.06658ZM144.81 16.3185C143.726 16.3185 142.721 16.0981 141.819 15.6656C140.931 15.2416 140.253 14.625 139.744 13.7824C139.237 12.9454 138.982 11.8964 138.982 10.666C138.982 9.43565 139.245 8.38105 139.761 7.5329C140.276 6.68755 140.979 6.03749 141.844 5.60504C142.729 5.16144 143.729 4.93824 144.81 4.93824C145.91 4.93824 146.904 5.16702 147.764 5.61899C148.613 6.06539 149.307 6.72102 149.825 7.57196C150.343 8.42011 150.604 9.46355 150.604 10.6688C150.604 11.8992 150.343 12.9454 149.825 13.7824C149.31 14.6166 148.615 15.2527 147.759 15.674C146.885 16.1009 145.891 16.3185 144.81 16.3185Z" fill="white"/><path d="M17.2254 0V13.6261L4.53387 0H0V7.35711H4.93153L17.5642 20.8438L17.623 20.9079H22.1569V0H17.2254Z" fill="white"/><path d="M0 12.2061V20.9079H4.93153V7.35712L0 12.2061Z" fill="white"/><path d="M130.006 5.06375C129.572 4.01472 128.965 3.13589 128.195 2.44956C127.43 1.76602 126.523 1.25546 125.501 0.92903C124.501 0.610975 123.397 0.449158 122.224 0.449158C120.916 0.449158 119.709 0.666774 118.634 1.09643C117.564 1.52329 116.615 2.10639 115.817 2.83178C115.156 3.42604 114.596 4.08447 114.145 4.79312C113.73 3.86406 113.168 3.0773 112.467 2.45235C111.703 1.76881 110.796 1.25824 109.773 0.93182C108.774 0.613765 107.67 0.451948 106.497 0.451948C105.142 0.451948 103.904 0.669564 102.817 1.09643C101.733 1.52608 100.781 2.11755 99.9887 2.85689C99.5099 3.30328 99.087 3.78316 98.723 4.29093V0.859281H92.7637V20.8047H98.723V9.17893C98.8854 8.7995 99.1178 8.42564 99.4175 8.06016C99.9887 7.36825 100.75 6.78236 101.683 6.31923C102.61 5.86167 103.666 5.63011 104.822 5.63011C106.315 5.63011 107.382 5.94258 107.998 6.55916C108.614 7.17574 108.925 8.20245 108.925 9.60858V20.8047H114.884V8.7437C114.884 8.6321 114.884 8.5205 114.881 8.4089C114.963 8.29172 115.049 8.17734 115.145 8.06016C115.716 7.36546 116.478 6.78236 117.41 6.31923C118.337 5.86167 119.393 5.63011 120.549 5.63011C122.042 5.63011 123.12 5.94258 123.747 6.56195C124.372 7.17853 124.691 8.20524 124.691 9.60579V20.8019H130.651V8.7437C130.653 7.33756 130.435 6.09882 130.006 5.06375Z" fill="white"/></g><defs><clipPath id="clip0_271_56"><rect width="156" height="21" fill="white"/></clipPath></defs></svg>