<svg width="386" height="25" viewBox="0 0 386 25" fill="none" xmlns="http://www.w3.org/2000/svg">
<g clip-path="url(#clip0_709_1998)">
<path d="M48.8639 1.72895C46.9349 0.777646 44.6963 0.298218 42.2123 0.298218C39.7284 0.298218 37.52 0.777646 35.5645 1.72895C33.5826 2.68781 31.9971 4.09589 30.8533 5.91168C29.7057 7.72747 29.1205 9.9283 29.1205 12.45C29.1205 14.9717 29.7057 17.2103 30.8533 19.011C32.0009 20.8117 33.5902 22.1971 35.5721 23.1296C37.5237 24.0469 39.7586 24.5112 42.2123 24.5112C44.6661 24.5112 46.9273 24.0469 48.8564 23.1296C50.8081 22.1971 52.3747 20.8117 53.511 19.011C54.6435 17.2103 55.2211 15.0019 55.2211 12.4538C55.2211 9.90565 54.6473 7.73502 53.511 5.91923C52.3785 4.10344 50.8156 2.69913 48.8639 1.7365V1.72895ZM42.2123 19.0412C40.9515 19.0412 39.7812 18.7845 38.7355 18.2787C37.7049 17.7841 36.916 17.0631 36.3233 16.0816C35.7344 15.1076 35.4362 13.8808 35.4362 12.4462C35.4362 11.0117 35.7419 9.78108 36.3422 8.78825C36.9424 7.79919 37.7578 7.04419 38.7657 6.53833C39.7963 6.02115 40.9552 5.76068 42.2123 5.76068C43.4694 5.76068 44.6472 6.0287 45.6438 6.55343C46.6291 7.07439 47.437 7.84072 48.0372 8.82977C48.6374 9.8226 48.9432 11.0382 48.9432 12.4425C48.9432 13.8468 48.6374 15.1001 48.041 16.074C47.4407 17.048 46.6329 17.7917 45.6401 18.2824C44.6208 18.7845 43.4694 19.0412 42.2123 19.0412Z" fill="white"/>
<path d="M79.5888 5.77962V0.77771H58.5808V6.19865H71.5744L58.5808 19.0186V24.0205H79.8417V18.6034H66.7009L79.5888 5.77962Z" fill="white"/>
<path d="M104.213 5.77962V0.77771H83.2053V6.19865H96.199L83.2053 19.0186V24.0205H104.466V18.6034H91.3254L104.213 5.77962Z" fill="white"/>
<path d="M179.623 5.91168C178.491 4.09589 176.928 2.69158 174.976 1.72895C173.047 0.777646 170.809 0.298218 168.325 0.298218C165.841 0.298218 163.632 0.777646 161.677 1.72895C159.695 2.68781 158.109 4.09589 156.966 5.91168C155.818 7.72747 155.233 9.9283 155.233 12.45C155.233 14.9717 155.818 17.2103 156.966 19.011C158.113 20.8117 159.702 22.1971 161.684 23.1296C163.636 24.0469 165.871 24.5112 168.325 24.5112C170.778 24.5112 173.04 24.0469 174.969 23.1296C176.92 22.1971 178.487 20.8117 179.623 19.011C180.756 17.2103 181.333 15.0019 181.333 12.4538C181.333 9.90565 180.76 7.73502 179.623 5.91923V5.91168ZM168.325 19.0412C167.064 19.0412 165.893 18.7845 164.848 18.2787C163.817 17.7841 163.028 17.0631 162.436 16.0816C161.847 15.1076 161.548 13.8808 161.548 12.4462C161.548 11.0117 161.854 9.78108 162.454 8.78825C163.055 7.79919 163.87 7.04419 164.878 6.53833C165.909 6.02115 167.067 5.76068 168.325 5.76068C169.582 5.76068 170.759 6.0287 171.756 6.55343C172.741 7.07439 173.549 7.84072 174.149 8.82977C174.75 9.8226 175.055 11.0382 175.055 12.4425C175.055 13.8468 174.75 15.1001 174.153 16.074C173.553 17.048 172.745 17.7917 171.752 18.2824C170.733 18.7845 169.582 19.0412 168.325 19.0412Z" fill="white"/>
<path d="M20.0227 0V15.9004L5.26993 0H0V8.58441H5.73426L20.4153 24.3187L20.4871 24.3942H25.7532V0H20.0227Z" fill="white"/>
<path d="M0 14.2431V24.3942H5.73426V8.58435L0 14.2431Z" fill="white"/>
<path d="M151.118 5.90795C150.616 4.68484 149.906 3.65803 149.012 2.85773C148.121 2.0612 147.067 1.46474 145.878 1.08347C144.716 0.709738 143.436 0.520987 142.069 0.520987C140.548 0.520987 139.144 0.773914 137.898 1.27599C136.656 1.7743 135.554 2.4538 134.621 3.2994C133.855 3.99401 133.202 4.76034 132.677 5.58707C132.198 4.50364 131.541 3.58631 130.725 2.85395C129.834 2.05742 128.781 1.46097 127.592 1.07969C126.429 0.705963 125.15 0.517212 123.783 0.517212C122.209 0.517212 120.771 0.770139 119.506 1.27222C118.245 1.77052 117.139 2.46512 116.218 3.32583C115.663 3.84678 115.168 4.40926 114.749 4.99817V1.00419H107.822V24.2734H114.749V10.7098C114.938 10.2681 115.21 9.8302 115.557 9.40362C116.222 8.59576 117.105 7.91248 118.192 7.37266C119.268 6.84038 120.499 6.56858 121.843 6.56858C123.575 6.56858 124.817 6.93475 125.535 7.65201C126.252 8.37304 126.614 9.56972 126.614 11.2081V24.2697H133.542V10.2001C133.542 10.068 133.542 9.93967 133.538 9.81132C133.632 9.67542 133.734 9.53952 133.844 9.40739C134.508 8.59954 135.391 7.91626 136.478 7.37643C137.554 6.84415 138.785 6.57235 140.129 6.57235C141.865 6.57235 143.115 6.93853 143.844 7.65956C144.572 8.38059 144.938 9.57727 144.938 11.2119V24.2734H151.865V10.2001C151.865 8.56179 151.613 7.11595 151.114 5.90795H151.118Z" fill="white"/>
<path d="M217.019 0.924927H216.335V24.4471H217.019H218.593H232.575V22.3293H218.593V13.575H230.865V11.4572H218.593V3.04649H232.575V0.924927H218.593H217.019Z" fill="white"/>
<path d="M247.143 0.581412C245.433 0.581412 243.844 0.879639 242.372 1.46854C240.903 2.06122 239.623 2.89928 238.544 3.98271C237.46 5.06614 236.611 6.34965 235.996 7.82946C235.38 9.31304 235.075 10.9401 235.075 12.7181C235.075 14.4962 235.38 16.1194 235.996 17.5917C236.611 19.0602 237.46 20.3399 238.544 21.4195C239.627 22.503 240.903 23.341 242.372 23.9337C243.844 24.5264 245.433 24.8208 247.143 24.8208C248.853 24.8208 250.367 24.6057 251.692 24.1715C253.013 23.7374 254.199 23.19 255.248 22.5294V20.0681C254.289 20.7514 253.138 21.3554 251.794 21.8801C250.45 22.4048 248.921 22.6653 247.211 22.6653C245.365 22.6653 243.7 22.2425 242.221 21.4007C240.737 20.5588 239.571 19.3886 238.717 17.8974C237.864 16.4063 237.434 14.6774 237.434 12.7181C237.434 10.7589 237.86 8.99594 238.717 7.50481C239.571 6.01367 240.741 4.83964 242.221 3.98271C243.7 3.12955 245.365 2.6992 247.211 2.6992C248.921 2.6992 250.446 2.95968 251.794 3.48441C253.138 4.00913 254.289 4.61314 255.248 5.29642V2.86908C254.199 2.1858 253.013 1.63464 251.692 1.21184C250.371 0.789038 248.853 0.577637 247.143 0.577637V0.581412Z" fill="white"/>
<path d="M268.91 14.364C270.484 14.364 271.862 14.1186 273.047 13.6279C274.233 13.1371 275.15 12.4048 275.8 11.4233C276.449 10.4418 276.773 9.24508 276.773 7.83322C276.773 6.23639 276.437 4.934 275.766 3.91852C275.094 2.90304 274.135 2.15181 272.893 1.66106C271.651 1.1703 270.186 0.924927 268.499 0.924927H259.061V24.4471H261.318V14.3602H265.573L274.21 24.4471H277.049L268.144 14.3602H268.91V14.364ZM261.318 3.04649H268.431C270.299 3.04649 271.772 3.42399 272.84 4.17522C273.912 4.92645 274.448 6.14579 274.448 7.83322C274.448 9.43006 273.912 10.6079 272.84 11.3704C271.768 12.133 270.299 12.5143 268.431 12.5143H261.318V3.04649Z" fill="white"/>
<path d="M297.683 14.7377C297.683 16.2893 297.43 17.6483 296.932 18.8223C296.43 19.9964 295.649 20.9137 294.592 21.5743C293.531 22.2349 292.168 22.5671 290.507 22.5671C288.846 22.5671 287.513 22.2387 286.456 21.5743C285.396 20.9137 284.614 19.9964 284.116 18.8223C283.614 17.6483 283.365 16.2855 283.365 14.7377V0.924927H281.005V14.7038C281.005 16.6857 281.334 18.4373 281.998 19.951C282.659 21.4686 283.697 22.654 285.109 23.5071C286.521 24.3603 288.321 24.7906 290.511 24.7906C292.7 24.7906 294.558 24.3641 295.947 23.5071C297.336 22.654 298.367 21.4686 299.042 19.951C299.714 18.4373 300.05 16.6857 300.05 14.7038V0.924927H297.691V14.7377H297.683Z" fill="white"/>
<path d="M308.136 0.924927H305.879V24.4471H308.136V0.924927Z" fill="white"/>
<path d="M319.824 0.924927H311.583V3.04649H319.824V24.4471H322.081V3.04649H330.322V0.924927H322.081H319.824Z" fill="white"/>
<path d="M336.026 0.924927H333.769V24.4471H336.026V0.924927Z" fill="white"/>
<path d="M358.435 20.5513L344.109 0.924927H341.889V24.4471H344.18V4.89248L358.574 24.4471H360.726V0.924927H358.435V20.5513Z" fill="white"/>
<path d="M375.332 11.831V13.7789H383.743V21.3478C383.342 21.5328 382.931 21.714 382.493 21.8839C381.138 22.4086 379.594 22.6691 377.861 22.6691C375.879 22.6691 374.128 22.2463 372.614 21.4045C371.096 20.5626 369.915 19.3924 369.058 17.9012C368.205 16.4101 367.774 14.6811 367.774 12.7219C367.774 10.7627 368.201 8.99595 369.058 7.48972C369.911 5.98348 371.096 4.81322 372.614 3.96762C374.131 3.12579 375.879 2.70298 377.861 2.70298C379.594 2.70298 381.138 2.96346 382.493 3.48819C383.724 3.96384 384.792 4.50745 385.713 5.11523V2.70298C384.732 2.09898 383.629 1.60068 382.391 1.21563C381.036 0.792822 379.503 0.581421 377.793 0.581421C375.992 0.581421 374.339 0.879648 372.837 1.46855C371.33 2.06123 370.02 2.89929 368.903 3.98272C367.786 5.06615 366.925 6.34966 366.321 7.82947C365.717 9.31305 365.415 10.9401 365.415 12.7181C365.415 14.4962 365.721 16.1194 366.336 17.5917C366.951 19.0602 367.816 20.3399 368.933 21.4196C370.051 22.503 371.368 23.341 372.882 23.9337C374.396 24.5264 376.057 24.8209 377.857 24.8209C379.658 24.8209 381.115 24.6057 382.44 24.1715C383.761 23.7374 384.947 23.19 385.996 22.5294V11.8272H375.328L375.332 11.831Z" fill="white"/>
<path d="M203.085 14.364H203.851C205.425 14.364 206.803 14.1186 207.989 13.6279C209.174 13.1371 210.091 12.401 210.741 11.4233C211.39 10.4418 211.715 9.24508 211.715 7.83322C211.715 6.23639 211.379 4.934 210.707 3.91852C210.035 2.90304 209.076 2.15181 207.834 1.66106C206.592 1.1703 205.127 0.924927 203.44 0.924927H194.002V3.04649H196.26H203.372C205.241 3.04649 206.713 3.42399 207.781 4.17522C208.853 4.92645 209.389 6.14579 209.389 7.83322C209.389 9.43006 208.853 10.6079 207.781 11.3742C206.709 12.1367 205.241 12.518 203.372 12.518H196.26V5.26998L194.002 7.49724V24.4509H196.26V14.364H200.514L209.151 24.4509H211.99L203.085 14.364Z" fill="white"/>
</g>
<defs>
<clipPath id="clip0_709_1998">
<rect width="386" height="24.8246" fill="white"/>
</clipPath>
</defs>
</svg>
