<svg width="35" height="35" viewBox="0 0 35 35" fill="none" xmlns="http://www.w3.org/2000/svg">
<circle cx="17.5" cy="17.5" r="17" fill="black" stroke="black"/>
<path d="M11.667 16.6C11.1699 16.6 10.767 17.0029 10.767 17.5C10.767 17.9971 11.1699 18.4 11.667 18.4L11.667 16.6ZM23.9701 18.1364C24.3215 17.7849 24.3215 17.2151 23.9701 16.8636L18.2425 11.136C17.891 10.7846 17.3212 10.7846 16.9697 11.136C16.6182 11.4875 16.6182 12.0574 16.9697 12.4088L22.0609 17.5L16.9697 22.5912C16.6182 22.9426 16.6182 23.5125 16.9697 23.864C17.3212 24.2154 17.891 24.2154 18.2425 23.864L23.9701 18.1364ZM11.667 18.4L23.3337 18.4L23.3337 16.6L11.667 16.6L11.667 18.4Z" fill="white"/>
</svg>
