<svg width="41" height="42" viewBox="0 0 41 42" fill="none" xmlns="http://www.w3.org/2000/svg">
<g clip-path="url(#clip0_726_180)">
<path d="M31.4443 27.859C31.5878 27.6414 31.6817 27.4301 31.835 27.2813C32.2393 26.8862 32.6028 26.8899 33.0083 27.2901C33.7797 28.0541 34.5388 28.8306 35.3029 29.6021C36.7209 31.035 38.1588 32.4505 39.5521 33.9085C40.8095 35.2239 41.3534 36.7869 40.7637 38.5838C40.1678 40.3994 38.9068 41.546 37.0411 41.9149C35.4624 42.2262 34.1098 41.6635 32.9947 40.5532C30.8064 38.3762 28.6478 36.1692 26.4818 33.9698C26.0565 33.5384 26.0614 33.1507 26.4682 32.7043C26.593 32.568 26.7216 32.4355 26.8836 32.2629C26.7748 32.1354 26.6858 32.0154 26.5819 31.9103C25.6571 30.9713 24.7188 30.0447 23.8088 29.0894C23.5517 28.8193 23.3724 28.8318 23.0671 29.0119C17.5494 32.2629 10.6532 31.7865 5.7685 27.749C2.44898 25.0081 0.575961 21.4169 0.0999792 17.1167C-0.885366 8.20632 5.5509 1.62666 12.5423 0.283724C17.3318 -0.636577 21.5934 0.711364 25.2813 3.8724C28.173 6.35196 29.9855 9.49924 30.574 13.3092C31.1081 16.7654 30.4058 20.0064 28.7776 23.0624C28.5872 23.4188 28.3622 23.7577 28.1805 24.1178C28.1236 24.2316 28.0914 24.4529 28.1545 24.5192C29.1967 25.5983 30.2575 26.6611 31.4431 27.859H31.4443ZM29.2993 15.6413C29.3105 9.15038 24.1748 1.63292 15.3858 1.52413C7.42145 1.42535 1.45498 7.98124 1.39564 15.6863C1.32764 24.5754 9.05092 29.7259 15.2004 29.7371C22.7246 29.7509 29.2561 23.2475 29.2981 15.6413H29.2993ZM28.0061 33.3671C28.0061 33.3671 28.0136 33.4033 28.0333 33.4233C30.1054 35.5178 32.1565 37.6347 34.2644 39.6929C35.0865 40.4956 36.1423 40.6669 37.2451 40.3256C39.5435 39.6141 40.2284 36.7557 38.5025 34.9651C36.5862 32.9769 34.6279 31.0313 32.6868 29.0681C32.604 28.9844 32.5014 28.9231 32.4322 28.8706C30.9486 30.3773 29.4934 31.8553 28.0061 33.3658V33.3671ZM24.8597 27.8502C25.9118 28.9193 26.9689 29.9922 27.9703 31.01C28.6836 30.2948 29.4427 29.5345 30.1499 28.8256C29.1436 27.799 28.11 26.7424 27.0851 25.6958C26.3346 26.4223 25.5607 27.17 24.8597 27.849V27.8502Z" fill="black"/>
<path d="M24.6225 15.5225C24.5953 20.8505 20.4635 25.0469 15.2722 25.0194C10.0957 24.9931 5.99612 20.7067 6.02826 15.3524C6.05794 10.3083 10.3121 6.16193 15.4169 6.20195C20.5365 6.24196 24.6497 10.4058 24.6225 15.5212V15.5225ZM23.1599 15.7426C23.1587 11.2111 19.6945 7.63492 15.3068 7.63617C10.95 7.63617 7.47228 11.2211 7.46981 15.7126C7.46857 20.0302 10.9995 23.5539 15.3229 23.5476C19.6339 23.5414 23.1612 20.029 23.1599 15.7426Z" fill="black"/>
</g>
<defs>
<clipPath id="clip0_726_180">
<rect width="41" height="42" fill="white"/>
</clipPath>
</defs>
</svg>
