<svg width="41" height="41" viewBox="0 0 41 41" fill="none" xmlns="http://www.w3.org/2000/svg">
<g clip-path="url(#clip0_726_161)">
<path d="M13.3985 13.2301C13.3985 10.9052 13.4239 8.57902 13.3878 6.25414C13.3678 4.98371 13.8464 3.98293 14.7755 3.16861C16.1137 1.99477 17.7127 1.32803 19.4065 0.91081C24.6325 -0.377064 29.8343 -0.354258 34.9774 1.34815C36.1539 1.7372 37.2461 2.31406 38.1886 3.14178C39.1311 3.96951 39.6124 4.977 39.6044 6.26622C39.5777 10.9173 39.5763 15.5684 39.6044 20.2195C39.6124 21.5503 39.1071 22.582 38.1204 23.4124C36.571 24.7164 34.722 25.3804 32.7875 25.7976C28.2514 26.7769 23.7207 26.7461 19.2247 25.5427C17.6044 25.1094 16.071 24.4641 14.7862 23.3373C13.8571 22.5229 13.3704 21.5275 13.3891 20.2571C13.4239 17.9148 13.3985 15.5724 13.3985 13.2301ZM26.2969 9.94471C28.5255 9.92593 30.5335 9.75421 32.5014 9.26589C34.1097 8.86745 35.6873 8.37243 36.9988 7.30054C38.1672 6.34537 38.2006 5.29092 36.9934 4.40014C36.2006 3.81523 35.3009 3.30008 34.3704 2.99153C29.3009 1.3079 24.1873 1.31595 19.075 2.82116C17.8718 3.17532 16.722 3.67974 15.7875 4.56113C14.8945 5.40361 14.8611 6.29841 15.7942 7.09663C16.3932 7.60909 17.0924 8.04509 17.8129 8.36438C20.5777 9.58786 23.5202 9.90044 26.2982 9.94605L26.2969 9.94471ZM37.8691 16.2191C36.579 17.1488 35.2327 17.7135 33.817 18.1227C30.6833 19.0282 27.4787 19.1852 24.2501 18.9853C21.9974 18.8458 19.7769 18.4648 17.6752 17.5995C16.8076 17.2413 15.9881 16.7651 15.1057 16.3224C15.1057 17.6317 15.1311 18.9477 15.0964 20.2625C15.0763 21.0392 15.341 21.6818 15.9613 22.0776C16.8116 22.6209 17.6873 23.191 18.6311 23.509C23.476 25.1389 28.3838 25.1577 33.3076 23.8672C34.6191 23.5237 35.8731 23.0206 36.9506 22.1621C37.4025 21.8025 37.841 21.384 37.8557 20.7749C37.8932 19.2925 37.8678 17.8074 37.8678 16.2191H37.8691ZM15.1057 8.85136C15.1057 10.1983 15.1391 11.4821 15.0937 12.7619C15.0629 13.6393 15.3731 14.3476 16.087 14.7675C17.071 15.3457 18.0843 15.9306 19.1605 16.2808C22.825 17.4734 26.5937 17.5807 30.3851 17.0763C32.4079 16.8067 34.3731 16.3076 36.1752 15.2934C37.3424 14.6374 38.1044 13.7587 37.8891 12.3058C37.8597 12.1099 37.8851 11.9047 37.8851 11.7048C37.8851 10.7751 37.8851 9.84543 37.8851 8.91173C37.0135 9.35175 36.2113 9.82397 35.3597 10.1714C32.8584 11.1923 30.2207 11.5706 27.5416 11.6297C23.2127 11.7249 18.9841 11.305 15.1057 8.85136Z" fill="black"/>
<path d="M27.0616 35.9115C23.6257 35.9115 20.1899 35.9169 16.7554 35.9035C16.3905 35.9021 16.206 36.0189 16.0215 36.3368C14.2167 39.4451 11.5228 41.11 7.92254 40.996C4.43858 40.8846 1.86773 39.1594 0.220669 36.0779C-0.269973 35.1603 0.0936639 34.5794 1.12174 34.578C2.88912 34.5754 4.65784 34.5673 6.42521 34.5861C6.75142 34.5888 6.93725 34.4868 7.10436 34.2105C7.47602 33.596 7.86906 32.9937 8.2835 32.4074C8.46933 32.1445 8.45195 31.958 8.27281 31.7031C7.85971 31.1169 7.46532 30.5145 7.09366 29.9001C6.93324 29.6372 6.74874 29.554 6.44928 29.5567C4.6819 29.5701 2.91318 29.5647 1.1458 29.562C0.109707 29.5607 -0.272646 28.9771 0.209974 28.0716C1.88243 24.9338 4.49206 23.2005 8.04687 23.1307C11.5669 23.0623 14.2073 24.6936 15.9867 27.7215C16.1899 28.0676 16.3878 28.2031 16.7915 28.2031C23.4787 28.1937 30.1672 28.2058 36.8544 28.2004C38.4974 28.1991 39.7795 28.8229 40.5576 30.3012C41.8784 32.8112 40.1057 35.8565 37.2701 35.8954C33.8691 35.941 30.4653 35.9062 27.0643 35.9062V35.9115H27.0616ZM2.36238 27.8503C3.968 27.8503 5.49741 27.8677 7.02548 27.8409C7.57495 27.8315 7.92655 28.034 8.21398 28.4942C8.82361 29.4722 9.45596 30.4367 10.1057 31.3879C10.4212 31.8507 10.4306 32.2545 10.1137 32.7214C9.44661 33.702 8.80222 34.6974 8.16853 35.6996C7.89848 36.1262 7.54687 36.2992 7.04554 36.2925C5.64447 36.2737 4.24473 36.2858 2.84366 36.2872C2.70329 36.2872 2.56425 36.3046 2.40249 36.3153C3.79955 38.6308 7.23805 39.8476 10.0776 39.0641C13.214 38.1975 15.3931 35.3575 15.4159 32.1083C15.4386 28.8819 13.3397 26.0325 10.2675 25.1189C7.33297 24.2469 3.90115 25.4033 2.36238 27.8503ZM17.0121 34.1984H17.4787C23.9012 34.1984 30.3249 34.1984 36.7474 34.1984C36.9479 34.1984 37.1485 34.2011 37.3477 34.1836C38.2755 34.1005 39.0148 33.4552 39.2207 32.559C39.5495 31.1223 38.5308 29.9283 36.9479 29.9269C30.4252 29.9176 23.9025 29.9162 17.3784 29.9135C17.222 29.9135 17.0656 29.935 17.0121 29.939V34.1997V34.1984Z" fill="black"/>
<path d="M17.6351 19.2001C18.115 19.1907 18.4947 19.5597 18.496 20.0399C18.4974 20.5028 18.0949 20.9106 17.6417 20.9052C17.2086 20.8999 16.8129 20.5095 16.7995 20.0735C16.7848 19.6026 17.1591 19.2095 17.6351 19.2001Z" fill="black"/>
<path d="M18.4945 12.3984C18.4785 12.8786 18.0935 13.2288 17.6068 13.2073C17.1496 13.1872 16.7953 12.8156 16.7994 12.3608C16.8034 11.894 17.2058 11.5009 17.6683 11.513C18.1362 11.5264 18.5106 11.9275 18.4945 12.3984Z" fill="black"/>
</g>
<defs>
<clipPath id="clip0_726_161">
<rect width="41" height="41" fill="white"/>
</clipPath>
</defs>
</svg>
